<svg width="40" height="40" fill="none" xmlns="http://www.w3.org/2000/svg"><path d="M30.5618 17.6819C31.9936 17.0724 33 15.652 33 14c0-2.206-1.794-4-4-4s-4 1.794-4 4c0 1.6516 1.006 3.0716 2.4372 3.6813-2.2579.5133-4.1193 2.1121-4.9582 4.2755-1.3298-1.2374-2.9625-2.1463-4.7767-2.6071C19.6554 18.3591 21 16.3359 21 14c0-3.3086-2.6914-6-6-6s-6 2.6914-6 6c0 2.3359 1.3445 4.3591 3.2977 5.3497C7.537 20.559 4 24.8685 4 30c0 .5527.4473 1 1 1s1-.4473 1-1c0-4.9629 4.0371-9 9-9s9 4.0371 9 9c0 .5527.4473 1 1 1s1-.4473 1-1c0-2.3253-.7299-4.4808-1.9661-6.2593.0103-.0354.0329-.0639.0393-.101C24.4893 21.2412 26.5615 19.5 29 19.5c2.7568 0 5 2.2432 5 5 0 .5527.4473 1 1 1s1-.4473 1-1c0-3.3219-2.329-6.1057-5.4382-6.8181ZM11 14c0-2.206 1.794-4 4-4s4 1.794 4 4-1.794 4-4 4-4-1.794-4-4Zm18-2c1.1025 0 2 .8975 2 2s-.8975 2-2 2-2-.8975-2-2 .8975-2 2-2Z" fill="#fff"/></svg>