<svg width="40" height="40" fill="none" xmlns="http://www.w3.org/2000/svg"><path d="M33.4531 13.2803C33.2305 10.6289 33 7.8877 33 7.1025v-1h-1c-3.7676 0-9.5039-.9443-11.5791-1.9072L20 4l-.4209.1953C17.5039 5.1582 11.7676 6.1025 8 6.1025H7v1c0 .7852-.2305 3.5264-.4531 6.1778C6.2774 16.4746 6 19.7764 6 20.9853c0 5.0332 2.4063 9.2481 6.957 12.1885 3.3692 2.1758 6.7012 2.8789 6.8408 2.9082l.2022.0411.2022-.0411c.1396-.0293 3.4716-.7324 6.8408-2.9082C31.5938 30.2334 34 26.0186 34 20.9853c0-1.2089-.2773-4.5107-.5469-7.705Zm-7.4463 18.1816c-2.6084 1.6973-5.2646 2.4316-6.0068 2.6143-.7422-.1827-3.3984-.917-6.0068-2.6143C10.0166 28.874 8 25.3496 8 20.9853c0-1.125.2861-4.5312.539-7.5371.1836-2.1816.3487-4.1416.422-5.3632 3.7607-.13 8.6816-.9707 11.039-1.8965 2.3574.9258 7.2783 1.7666 11.039 1.8965.0733 1.2216.2383 3.1816.4219 5.3632.253 3.0059.5391 6.4121.5391 7.5371 0 4.3643-2.0166 7.8887-5.9932 10.4766Zm-1.0049-15.984H25v-2c0-2.7568-2.2432-5-5-5s-5 2.2432-5 5v2h-.002c-1.6533 0-2.998 1.3446-2.998 2.9979v8.0041c0 1.6533 1.3447 2.998 2.998 2.998h10.004c1.6533 0 2.998-1.3447 2.998-2.998v-8.0041c0-1.6533-1.3447-2.9979-2.998-2.9979h-.0001Zm-8.0019-2c0-1.6543 1.3457-3 3-3s3 1.3457 3 3v2h-6v-2Zm9 13.002c0 .5506-.4473.998-.9981.998H14.998c-.5507 0-.998-.4474-.998-.998v-8.0041c0-.5506.4482-.9979 1-.9979h10.0019c.5508 0 .9981.4473.9981.9979v8.0041Zm-4-4.002c0 1.1045-.8955 2-2 2s-2-.8955-2-2c0-1.1046.8955-2 2-2s2 .8954 2 2Z" fill="#fff"/></svg>