<svg width="40" height="40" fill="none" xmlns="http://www.w3.org/2000/svg"><path d="M32.8096 6H7.1904C5.4316 6 4 7.4316 4 9.1904v17.6192C4 28.5684 5.4316 30 7.1904 30H19v2h-9v2h20v-2h-9v-2h11.8096C34.5684 30 36 28.5684 36 26.8096V9.1904C36 7.4316 34.5684 6 32.8096 6ZM7.1904 8h25.6192C33.4658 8 34 8.5342 34 9.1904V21H6V9.1904C6 8.5342 6.5342 8 7.1904 8Zm25.6192 20H7.1904C6.5342 28 6 27.4658 6 26.8096V23h28v3.8096C34 27.4658 33.4658 28 32.8096 28ZM21.5 25.5c0 .8284-.6716 1.5-1.5 1.5s-1.5-.6716-1.5-1.5.6716-1.5 1.5-1.5 1.5.6716 1.5 1.5Z" fill="#fff"/></svg>