<?xml version="1.0" encoding="utf-8"?>
<svg version="1.1" id="Layer_1" xmlns="http://www.w3.org/2000/svg" xmlns:xlink="http://www.w3.org/1999/xlink" x="0px" y="0px"
	 viewBox="0 0 238 58" style="enable-background:new 0 0 238 58;" xml:space="preserve">
<style type="text/css">
	.st0{fill-rule:evenodd;clip-rule:evenodd;fill:#FFFFFF;}
</style>
<g>
	<path class="st0" d="M4.7,56.5v-8.6h1v7.7h3.8v0.9H4.7z M18.7,56.5h-4.8v-8.6h4.8v0.9h-3.8v2.8h3.6v0.9h-3.6v3.2h3.8V56.5z
		 M23.6,47.9H26c1.1,0,2,0.2,2.5,0.5c0.5,0.3,0.8,0.9,0.8,1.6c0,0.5-0.1,0.9-0.4,1.3c-0.3,0.3-0.7,0.5-1.2,0.6V52
		c1.3,0.2,2,0.9,2,2.1c0,0.8-0.3,1.4-0.8,1.8s-1.2,0.6-2.2,0.6h-3V47.9z M24.6,51.6h1.6c0.7,0,1.2-0.1,1.5-0.3
		c0.3-0.2,0.5-0.6,0.5-1.1c0-0.5-0.2-0.8-0.5-1c-0.3-0.2-0.9-0.3-1.6-0.3h-1.5V51.6z M24.6,52.4v3.2h1.8c0.7,0,1.2-0.1,1.6-0.4
		s0.5-0.7,0.5-1.3c0-0.5-0.2-0.9-0.5-1.2c-0.4-0.2-0.9-0.4-1.6-0.4C26.3,52.4,24.6,52.4,24.6,52.4z M39.1,56.5h-4.8v-8.6h4.8v0.9
		h-3.8v2.8h3.6v0.9h-3.6v3.2h3.8V56.5z M50.7,56.5h-1.1l-4.7-7.2h0c0.1,0.8,0.1,1.6,0.1,2.3v4.9H44v-8.6h1.1l4.7,7.2h0
		c0-0.1,0-0.4-0.1-1c0-0.6,0-1,0-1.2v-4.9h0.9V56.5z M60.9,54.2c0,0.8-0.3,1.3-0.8,1.8c-0.5,0.4-1.3,0.6-2.2,0.6
		c-1,0-1.8-0.1-2.3-0.4v-1c0.4,0.1,0.7,0.3,1.1,0.4c0.4,0.1,0.8,0.1,1.2,0.1c0.7,0,1.2-0.1,1.5-0.4c0.3-0.3,0.5-0.6,0.5-1.1
		c0-0.3-0.1-0.5-0.2-0.7c-0.1-0.2-0.3-0.4-0.6-0.5c-0.3-0.2-0.7-0.3-1.3-0.5c-0.8-0.3-1.4-0.6-1.7-1c-0.3-0.4-0.5-0.9-0.5-1.5
		c0-0.7,0.2-1.2,0.7-1.6s1.2-0.6,2-0.6c0.9,0,1.6,0.2,2.4,0.5l-0.3,0.9c-0.7-0.3-1.4-0.4-2.1-0.4c-0.5,0-0.9,0.1-1.2,0.3
		c-0.3,0.2-0.4,0.5-0.4,0.9c0,0.3,0.1,0.5,0.2,0.7c0.1,0.2,0.3,0.4,0.6,0.5c0.3,0.2,0.7,0.3,1.2,0.5c0.9,0.3,1.5,0.7,1.9,1
		C60.7,53.1,60.9,53.6,60.9,54.2L60.9,54.2z M73.1,56.5h-1l-1.7-5.7c-0.1-0.3-0.2-0.6-0.3-1C70,49.4,70,49.1,70,49.1
		c-0.1,0.5-0.2,1.1-0.4,1.7l-1.7,5.7h-1l-2.3-8.6h1.1l1.4,5.3c0.2,0.7,0.3,1.4,0.4,2c0.1-0.7,0.3-1.4,0.5-2.1l1.5-5.2h1.1l1.6,5.3
		c0.2,0.6,0.3,1.3,0.5,2.1c0.1-0.6,0.2-1.2,0.4-2l1.3-5.3h1.1L73.1,56.5z M84.5,56.5h-4.8v-8.6h4.8v0.9h-3.8v2.8h3.6v0.9h-3.6v3.2
		h3.8V56.5z M90.4,52.9v3.6h-1v-8.6h2.4c1.1,0,1.8,0.2,2.3,0.6c0.5,0.4,0.8,1,0.8,1.8c0,1.1-0.6,1.9-1.7,2.3l2.3,3.8h-1.2l-2.1-3.6
		H90.4L90.4,52.9z M90.4,52h1.4c0.7,0,1.2-0.1,1.5-0.4s0.5-0.7,0.5-1.3c0-0.6-0.2-1-0.5-1.2s-0.9-0.4-1.6-0.4h-1.3V52z M102.5,56.5
		h-1v-7.7h-2.7v-0.9h6.4v0.9h-2.7V56.5z M114.3,56.5h-4.8v-8.6h4.8v0.9h-3.8v2.8h3.6v0.9h-3.6v3.2h3.8V56.5z M130.7,56.5l-1.1-2.7
		h-3.4l-1.1,2.7h-1l3.4-8.6h0.8l3.4,8.6H130.7z M129.3,52.8l-1-2.7c-0.1-0.3-0.3-0.7-0.4-1.2c-0.1,0.4-0.2,0.8-0.4,1.2l-1,2.7H129.3
		z M136.9,52.9v3.6h-1v-8.6h2.4c1.1,0,1.8,0.2,2.3,0.6c0.5,0.4,0.8,1,0.8,1.8c0,1.1-0.6,1.9-1.7,2.3l2.3,3.8h-1.2l-2.1-3.6H136.9z
		 M136.9,52h1.4c0.7,0,1.2-0.1,1.5-0.4c0.3-0.3,0.5-0.7,0.5-1.3c0-0.6-0.2-1-0.5-1.2c-0.3-0.2-0.9-0.4-1.6-0.4h-1.3V52z M146.3,47.9
		h2.4c1.1,0,2,0.2,2.5,0.5c0.5,0.3,0.8,0.9,0.8,1.6c0,0.5-0.1,0.9-0.4,1.3c-0.3,0.3-0.7,0.5-1.2,0.6V52c1.3,0.2,2,0.9,2,2.1
		c0,0.8-0.3,1.4-0.8,1.8c-0.5,0.4-1.2,0.6-2.2,0.6h-3L146.3,47.9L146.3,47.9z M147.3,51.6h1.6c0.7,0,1.2-0.1,1.5-0.3
		c0.3-0.2,0.5-0.6,0.5-1.1c0-0.5-0.2-0.8-0.5-1c-0.3-0.2-0.9-0.3-1.6-0.3h-1.5V51.6z M147.3,52.4v3.2h1.8c0.7,0,1.2-0.1,1.6-0.4
		s0.5-0.7,0.5-1.3c0-0.5-0.2-0.9-0.5-1.2c-0.4-0.2-0.9-0.4-1.6-0.4L147.3,52.4L147.3,52.4z M161.8,56.5h-4.8v-8.6h4.8v0.9h-3.8v2.8
		h3.6v0.9h-3.6v3.2h3.8V56.5z M166.7,56.5v-8.6h1v8.6H166.7z M175.7,56.5h-1v-7.7H172v-0.9h6.4v0.9h-2.7V56.5z M187.5,54.2
		c0,0.8-0.3,1.3-0.8,1.8c-0.5,0.4-1.3,0.6-2.2,0.6c-1,0-1.8-0.1-2.3-0.4v-1c0.4,0.1,0.7,0.3,1.1,0.4c0.4,0.1,0.8,0.1,1.2,0.1
		c0.7,0,1.2-0.1,1.5-0.4c0.3-0.3,0.5-0.6,0.5-1.1c0-0.3-0.1-0.5-0.2-0.7c-0.1-0.2-0.3-0.4-0.6-0.5c-0.3-0.2-0.7-0.3-1.3-0.5
		c-0.8-0.3-1.4-0.6-1.7-1c-0.3-0.4-0.5-0.9-0.5-1.5c0-0.7,0.2-1.2,0.7-1.6s1.2-0.6,2-0.6c0.9,0,1.6,0.2,2.3,0.5l-0.3,0.9
		c-0.7-0.3-1.4-0.4-2.1-0.4c-0.5,0-0.9,0.1-1.2,0.3c-0.3,0.2-0.4,0.5-0.4,0.9c0,0.3,0.1,0.5,0.2,0.7c0.1,0.2,0.3,0.4,0.6,0.5
		c0.3,0.2,0.7,0.3,1.2,0.5c0.9,0.3,1.5,0.7,1.9,1C187.4,53.1,187.5,53.6,187.5,54.2z M199.7,52.2c0,1.4-0.3,2.4-1,3.2
		c-0.7,0.8-1.7,1.2-2.9,1.2c-1.3,0-2.2-0.4-2.9-1.2c-0.7-0.8-1-1.9-1-3.3c0-1.4,0.3-2.5,1-3.2c0.7-0.8,1.7-1.2,2.9-1.2
		c1.2,0,2.2,0.4,2.9,1.2C199.4,49.7,199.7,50.8,199.7,52.2L199.7,52.2z M192.9,52.2c0,1.2,0.2,2,0.7,2.6c0.5,0.6,1.2,0.9,2.2,0.9
		c0.9,0,1.7-0.3,2.1-0.9c0.5-0.6,0.7-1.5,0.7-2.6c0-1.2-0.2-2-0.7-2.6c-0.5-0.6-1.2-0.9-2.1-0.9c-1,0-1.7,0.3-2.2,0.9
		C193.2,50.1,192.9,51,192.9,52.2z M205.6,52.9v3.6h-1v-8.6h2.3c1.1,0,1.8,0.2,2.3,0.6c0.5,0.4,0.8,1,0.8,1.8c0,1.1-0.6,1.9-1.7,2.3
		l2.3,3.8h-1.2l-2.1-3.6H205.6L205.6,52.9z M205.6,52h1.4c0.7,0,1.2-0.1,1.5-0.4s0.5-0.7,0.5-1.3c0-0.6-0.2-1-0.5-1.2
		s-0.9-0.4-1.6-0.4h-1.3L205.6,52L205.6,52z M217.7,56.5h-1v-7.7H214v-0.9h6.4v0.9h-2.7L217.7,56.5L217.7,56.5z M229.5,56.5h-4.8
		v-8.6h4.8v0.9h-3.8v2.8h3.6v0.9h-3.6v3.2h3.8V56.5z M38,4.4c-0.6,0.2-1.5,0.3-2.2,0.4l-5.8,22.7H25l-4.4-15.8
		c-0.4-1.6-0.7-3.2-0.9-4.8h0c-0.2,1.6-0.5,3.2-0.9,4.8l-4.3,15.9H9.5L3.6,4.7C3,4.7,2.1,4.5,1.5,4.4V1.8h9.4v2.5
		C10.1,4.5,9,4.7,8,4.8l3.2,12.6c0.4,1.7,0.7,3.3,1,5.1h0c0.3-1.7,0.6-3.3,1-4.9l4.4-15.8h4.6l4.5,15.8c0.4,1.4,0.8,3.1,1,4.8h0
		c0.3-1.6,0.5-3.1,0.9-4.5l3.2-13.1c-0.9-0.1-2-0.3-2.8-0.5V1.8H38C38,1.8,38,4.4,38,4.4z M79.6,14.3c0,8.5-5.5,13.5-12.3,13.5
		c-7.8,0-11.6-5.1-11.6-12.9c0-8.5,5.5-13.5,12.3-13.5C75,1.4,79.6,5.7,79.6,14.3z M75.2,14.7c0-6.2-2.7-9.7-7.5-9.7
		c-4,0-7.5,3.2-7.5,9.3c0,5.8,2.4,9.7,7.4,9.7C71.4,24.2,75.2,21.1,75.2,14.7z M119.1,27.5h-6l-7-11.1h-0.6v8.1
		c0.9,0.1,1.8,0.2,2.6,0.5v2.5H98v-2.5c1-0.2,2.2-0.4,3.3-0.5V4.8C100.2,4.7,99,4.5,98,4.3V1.8h3c1,0,4.1-0.2,7.2-0.2
		c5.3,0,9,1.9,9,7c0,3.9-2.8,6.4-6.8,7c0.5,0.6,1.1,1.4,1.5,2.1l4.4,6.7c0.8,0.1,1.7,0.3,2.7,0.5L119.1,27.5L119.1,27.5z M112.8,9.1
		c0-2.8-1.7-4-5.2-4c-0.8,0-1.6,0-2.2,0.1v8.1c0.4,0,1.1,0.1,2,0.1C110.8,13.3,112.8,11.6,112.8,9.1L112.8,9.1z M160.9,27.5h-10.2
		v-2.5c0.7-0.2,1.4-0.3,2.2-0.4l-8.6-9.9v9.8c0.8,0.1,1.9,0.2,2.7,0.5v2.5h-10.1v-2.5c1-0.2,2.2-0.4,3.3-0.5V4.8
		c-1.1-0.1-2.3-0.3-3.3-0.5V1.8h10.1v2.5c-0.8,0.2-1.9,0.4-2.7,0.5V14l8.5-9.3c-0.8,0-1.6-0.2-2.3-0.4V1.8h9.9v2.5
		c-0.8,0.2-1.7,0.3-2.5,0.5l-8.8,9.3l9.4,10.4c0.8,0.1,1.7,0.3,2.5,0.5V27.5L160.9,27.5z M195.7,27.5h-17.1v-2.5
		c1-0.2,2.2-0.4,3.3-0.5V4.8c-1.1-0.1-2.3-0.3-3.3-0.5V1.8h17V8h-3c-0.2-1.1-0.4-2.1-0.5-2.9H186v7.7h4.9c0.1-0.8,0.3-1.6,0.5-2.4
		h2.6v7.8h-2.6c-0.2-0.7-0.4-1.6-0.5-2.4H186v8.3h6.2c0.1-0.9,0.3-1.9,0.5-3h3V27.5z M236.5,4.4c-0.6,0.2-1.5,0.3-2.2,0.4l-7,13.8
		v5.9c1.1,0.1,2.3,0.3,3.3,0.5v2.5h-10.8v-2.5c1-0.2,2.2-0.4,3.3-0.5v-5.9l-6.9-13.8c-0.6-0.1-1.6-0.2-2.2-0.4V1.8h9.3v2.5
		c-0.8,0.2-1.7,0.3-2.5,0.4l2.7,6c0.6,1.3,1.2,2.5,1.7,3.8h0.1c0.5-1.3,1.3-2.7,1.9-4l2.7-5.8c-0.9-0.1-1.8-0.2-2.6-0.4V1.8h9.1V4.4
		z"/>
</g>
</svg>
